<svg width="64" height="64" viewBox="0 0 64 64" fill="none" xmlns="http://www.w3.org/2000/svg">
  <rect width="64" height="64" rx="12" fill="#24292e"/>
  <path d="M32 12C20.954 12 12 20.954 12 32C12 40.835 17.717 48.368 25.688 50.717C26.688 50.896 27.063 50.283 27.063 49.746C27.063 49.254 27.046 47.92 27.038 46.146C21.671 47.317 20.5 43.446 20.5 43.446C19.594 41.404 18.267 40.796 18.267 40.796C16.421 39.596 18.421 39.621 18.421 39.621C20.471 39.763 21.521 41.654 21.521 41.654C23.338 44.738 26.288 43.838 27.096 43.321C27.271 42.013 27.796 41.113 28.371 40.608C23.996 40.096 19.396 38.413 19.396 30.746C19.396 28.796 20.171 27.213 21.563 25.971C21.363 25.463 20.671 23.463 21.746 20.746C21.746 20.746 23.463 20.204 26.996 22.604C28.646 22.154 30.321 21.929 31.996 21.921C33.671 21.929 35.346 22.154 36.996 22.604C40.521 20.204 42.238 20.746 42.238 20.746C43.313 23.463 42.621 25.463 42.421 25.971C43.821 27.213 44.588 28.796 44.588 30.746C44.588 38.429 39.979 40.088 35.596 40.588C36.321 41.213 36.971 42.446 36.971 44.321C36.971 47.071 36.946 49.288 36.946 49.746C36.946 50.288 37.313 50.904 38.329 50.713C46.288 48.363 52 40.829 52 32C52 20.954 43.046 12 32 12Z" fill="white"/>
</svg>
