<svg width="64" height="64" viewBox="0 0 64 64" fill="none" xmlns="http://www.w3.org/2000/svg">
  <rect width="64" height="64" rx="12" fill="#0A66C2"/>
  <path d="M18 24H26V46H18V24ZM22 20C24.2091 20 26 18.2091 26 16C26 13.7909 24.2091 12 22 12C19.7909 12 18 13.7909 18 16C18 18.2091 19.7909 20 22 20Z" fill="white"/>
  <path d="M30 24H38V27.5H38.2C39.4 25.4 42.2 23.2 46.2 23.2C54.4 23.2 56 28.9 56 36.4V46H48V38C48 34.7 47.9 30.5 43.5 30.5C39 30.5 38.3 34 38.3 37.8V46H30V24Z" fill="white"/>
</svg>
